# AST/ASF file generated using VICON BodyLanguage
# -----------------------------------------------
:version 1.10
:name VICON
:units
  mass 1.0
  length 0.45
  angle deg
:documentation
   .ast/.asf automatically generated from VICON data using
   VICON BodyBuilder and BodyLanguage model FoxedUp or BRILLIANT.MOD
:root
   order TX TY TZ RX RY RZ
   axis XYZ
   position 0 0 0  
   orientation 0 0 0 
:bonedata
  begin
     id 1 
     name lhipjoint
     direction 0.621036 -0.695554 0.361275 
     length 2.46325 
     axis 0 0 0  XYZ
  end
  begin
     id 2 
     name lfemur
     direction 0.34202 -0.939693 0  
     length 6.54784  
     axis 0 0 20  XYZ
    dof rx ry rz
    limits (-160.0 20.0)
           (-70.0 70.0)
           (-60.0 70.0)
  end
  begin
     id 3 
     name ltibia
     direction 0.34202 -0.939693 0   
     length 7.84737   
     axis 0 0 20   XYZ
    dof rx
    limits (-10.0 170.0)
  end
  begin
     id 4 
     name lfoot
     direction 0.0790693 -0.217241 0.97291   
     length 2.59747   
     axis -90 7.62852e-016 20   XYZ
    dof rx rz
    limits (-45.0 90.0)
           (-70.0 20.0)
  end
  begin
     id 5 
     name ltoes
     direction 1.53572e-011 -4.21898e-011 1   
     length 1.29919   
     axis -90 7.62852e-016 20   XYZ
    dof rx
    limits (-90.0 20.0)
  end
  begin
     id 6 
     name rhipjoint
     direction -0.602353 -0.708375 0.367935   
     length 2.41867  
     axis 0 0 0  XYZ 
  end
  begin
     id 7 
     name rfemur
     direction -0.34202 -0.939693 0   
     length 6.92065   
     axis 0 0 -20   XYZ
    dof rx ry rz
    limits (-160.0 20.0)
           (-70.0 70.0)
           (-70.0 60.0)
  end
  begin
     id 8 
     name rtibia
     direction -0.34202 -0.939693 0   
     length 7.88883   
     axis 0 0 -20   XYZ
    dof rx
    limits (-10.0 170.0)
 end
 begin
     id 9 
     name rfoot
     direction -0.0768692 -0.211196 0.974416   
     length 2.43714  
     axis -90 -7.62852e-016 -20   XYZ
    dof rx rz
    limits (-45.0 90.0)
           (-20.0 70.0)
  end
  begin
     id 10 
     name rtoes
     direction -1.53575e-011 -4.21933e-011 1   
     length 1.22113   
     axis -90 -7.62852e-016 -20   XYZ
    dof rx
    limits (-90.0 20.0)
  end
  begin
     id 11 
     name lowerback
     direction 0.0197937 0.98943 -0.143655   
     length 2.16931   
     axis 0 0 0   XYZ
    dof rx ry rz
    limits (-20.0 45.0)
           (-30.0 30.0)
           (-30.0 30.0)
  end
  begin
     id 12 
     name upperback
     direction -0.00183968 0.999975 0.00684288   
     length 2.17221   
     axis 0 0 0   XYZ
    dof rx ry rz
    limits (-20.0 45.0)
           (-30.0 30.0)
           (-30.0 30.0)
  end
  begin
     id 13 
     name thorax
     direction -0.00950244 0.997208 0.0740685   
     length 2.22549   
     axis 0 0 0   XYZ
    dof rx ry rz
    limits (-20.0 45.0)
           (-30.0 30.0)
           (-30.0 30.0)
  end
  begin
     id 14 
     name lowerneck
     direction 0.0218238 0.996215 0.0841425   
     length 1.77269   
     axis 0 0 0   XYZ
    dof rx ry rz
    limits (-20.0 45.0)
           (-30.0 30.0)
           (-30.0 30.0)
  end
  begin
     id 15 
     name upperneck
     direction -0.00430652 0.994214 -0.107332   
     length 1.76534   
     axis 0 0 0   XYZ
    dof rx ry rz
    limits (-20.0 45.0)
           (-30.0 30.0)
           (-30.0 30.0)
  end
  begin
     id 16
     name head
     direction -0.00328946 0.998959 -0.0454998  
     length 1.82634  
     axis 0 0 0   XYZ
    dof rx ry rz
    limits (-20.0 45.0)
           (-30.0 30.0)
           (-30.0 30.0)
  end
  begin
     id 17 
     name lclavicle
     direction 0.970962 0.239191 0.00450212  
     length 3.84872  
     axis 0 0 0   XYZ
    dof ry rz
    limits (-20.0 10.0)
           (0.0 20.0)
  end
  begin
     id 18 
     name lhumerus
     direction 1 -4.48966e-011 5.74696e-028   
     length 5.22771   
     axis 180 -30 -90   XYZ
    dof rx ry rz
    limits (-60.0 90.0)
           (-90.0 90.0)
           (-90.0 90.0)
  end
  begin
     id 19
     name lradius
     direction 1 -4.4896e-011 4.25109e-027   
     length 3.45251   
     axis 180 -30 -90   XYZ
    dof rx
    limits (-10.0 170.0)
  end
  begin
     id 20
     name lwrist
     direction 1 -4.48971e-011 1.15382e-027   
     length 1.72626   
     axis -5.52449e-016 90 90   XYZ
    dof ry
    limits (-180.0 0.0)
 end
  begin
     id 21 
     name lhand
     direction 1 -4.49034e-011 2.30765e-027   
     length 0.552119   
     axis -1.47248e-015 90 90   XYZ
    dof rx rz
    limits (-90.0 90.0)
           (-45.0 45.0)
  end
  begin
     id 22 
     name lfingers
     direction 1 -4.48951e-011 4.61529e-027   
     length 0.445133   
     axis -2.94495e-015 90 90   XYZ
    dof rx
    limits (0.0 90.0)
  end
  begin
     id 23
     name lthumb
     direction 0.707107 -6.34991e-011 0.707107   
     length 0.639124   
     axis -90 45 2.85299e-015   XYZ
    dof rx rz
    limits (-45.0 45.0)
           (-45.0 45.0)
  end
  begin
     id 24 
     name rclavicle
     direction -0.97424 0.222511 -0.0366699   
     length 3.73439  
     axis 0 0 0   XYZ 
    dof ry rz
    limits (-10.0 20.0)
           (-20.0 0.0)
  end
  begin
     id 25 
     name rhumerus
     direction -1 -4.48956e-011 -4.97258e-028  
     length 5.2398   
     axis 180 30 90   XYZ
    dof rx ry rz
    limits (-90.0 60.0)
           (-90.0 90.0)
           (-90.0 90.0)
  end
  begin
     id 26 
     name rradius
     direction -1 -4.4897e-011 -1.72611e-027   
     length 3.48042   
     axis 180 30 90   XYZ
    dof rx
    limits (-10.0 170.0)
  end
  begin
     id 27 
     name rwrist
     direction -1 -4.48976e-011 1.15382e-027   
     length 1.74021   
     axis -5.52449e-016 -90 -90   XYZ
    dof ry
    limits (-180.0 0.0)
  end
  begin
     id 28
     name rhand
     direction -1 -4.48963e-011 2.30765e-027   
     length 0.618713   
     axis -1.47248e-015 -90 -90   XYZ
    dof rx rz
    limits (-90.0 90.0)
           (-45.0 45.0)
  end
  begin
     id 29
     name rfingers
     direction -1 -4.4888e-011 4.61529e-027   
     length 0.498823   
     axis -2.94495e-015 -90 -90   XYZ
    dof rx
    limits (0.0 90.0)
  end
  begin
     id 30
     name rthumb
     direction -0.707107 -6.34968e-011 0.707107   
     length 0.716213   
     axis -90 -45 -2.85299e-015   XYZ
    dof rx rz
    limits (-45.0 45.0)
           (-45.0 45.0)
  end
:hierarchy
  begin
    root lhipjoint rhipjoint lowerback
    lhipjoint lfemur
    lfemur ltibia
    ltibia lfoot
    lfoot ltoes
    rhipjoint rfemur
    rfemur rtibia
    rtibia rfoot
    rfoot rtoes
    lowerback upperback
    upperback thorax
    thorax lowerneck lclavicle rclavicle
    lowerneck upperneck
    upperneck head
    lclavicle lhumerus
    lhumerus lradius
    lradius lwrist
    lwrist lhand lthumb
    lhand lfingers
    rclavicle rhumerus
    rhumerus rradius
    rradius rwrist
    rwrist rhand rthumb
    rhand rfingers
  end

#!OML:ASF G:\JayActor3\Patient Classification 1\Patient 1\Session 5\male.ASF
:FULLY-SPECIFIED
:DEGREES
233
root -40.1523 15.9921 -5.12393 -144.009 87.5844 -164.141
lowerback 34.4974 -2.3909 2.11409
upperback 9.05369 -1.36474 -1.26678
thorax -7.58226 -0.208433 -2.01315
lowerneck 2.58486 -0.874405 1.50233
upperneck -27.009 0.67704 3.49005
head -8.85434 0.251876 0.810513
rclavicle 6.36111e-015 2.14687e-014
rhumerus -28.2257 7.06324 -89.7078
rradius 50.4663
rwrist -7.99405
rhand -20.7188 -10.3773
rfingers 7.12502
rthumb 5.64586 -40.2821
lclavicle 6.36111e-015 2.14687e-014
lhumerus -25.9822 -0.652079 81.5711
lradius 43.8396
lwrist 26.9846
lhand -18.7461 14.1571
lfingers 7.12502
lthumb 7.55026 44.0023
rfemur -67.1102 -4.551 17.3776
rtibia 78.1468
rfoot 9.2042 -2.8161
rtoes -8.25435
lfemur -65.7995 10.2494 -20.3835
ltibia 73.6296
lfoot 9.19104 -10.3378
ltoes -33.2344
234
root -40.1421 15.9984 -5.13506 -144.112 87.6095 -164.201
lowerback 34.4878 -2.38572 2.11514
upperback 9.04356 -1.35966 -1.26424
thorax -7.58952 -0.206886 -2.01291
lowerneck 2.54457 -0.87446 1.50663
upperneck -26.967 0.674971 3.49399
head -8.83215 0.250495 0.811045
rclavicle -2.26615e-014 -7.35503e-015
rhumerus -28.2705 6.98661 -89.6785
rradius 50.4061
rwrist -7.99562
rhand -20.7347 -10.3811
rfingers 7.12502
rthumb 5.6305 -40.2863
lclavicle -2.26615e-014 -7.35503e-015
lhumerus -26.0035 -0.618845 81.5445
lradius 43.7535
lwrist 26.9601
lhand -18.7676 14.0782
lfingers 7.12502
lthumb 7.52948 43.9242
rfemur -66.9816 -4.57195 17.2446
rtibia 78.0511
rfoot 9.45774 -2.84807
rtoes -7.77342
lfemur -65.7007 10.2488 -20.3595
ltibia 73.5609
lfoot 9.51985 -10.4484
ltoes -33.0917
235
root -40.1321 16.0041 -5.1463 -144.216 87.6399 -164.257
lowerback 34.496 -2.38067 2.12344
upperback 9.02594 -1.35347 -1.27393
thorax -7.61205 -0.204932 -2.02965
lowerneck 2.51138 -0.877877 1.52227
upperneck -26.9246 0.671164 3.50475
head -8.8112 0.246327 0.812116
rclavicle -4.45278e-014 -2.98177e-014
rhumerus -28.3201 6.89396 -89.6621
rradius 50.339
rwrist -7.97557
rhand -20.7663 -10.399
rfingers 7.12502
rthumb 5.6 -40.305
lclavicle -4.45278e-014 -2.98177e-014
lhumerus -26.0229 -0.593979 81.502
lradius 43.6687
lwrist 26.9316
lhand -18.7911 13.9829
lfingers 7.12502
lthumb 7.50679 43.8297
rfemur -66.8565 -4.59221 17.1194
rtibia 77.9646
rfoot 9.69425 -2.90145
rtoes -7.28392
lfemur -65.6083 10.2588 -20.344
ltibia 73.5046
lfoot 9.86279 -10.5506
ltoes -32.9633
236
root -40.1222 16.0092 -5.15779 -144.342 87.6785 -164.341
lowerback 34.5074 -2.37226 2.12971
upperback 9.00488 -1.34468 -1.28916
thorax -7.63951 -0.201898 -2.05205
lowerneck 2.48668 -0.882834 1.54246
upperneck -26.8896 0.666431 3.51574
head -8.79447 0.241147 0.812606
rclavicle -2.34566e-014 -3.37934e-014
rhumerus -28.3655 6.79236 -89.6476
rradius 50.2658
rwrist -7.928
rhand -20.7798 -10.4213
rfingers 7.12502
rthumb 5.58694 -40.3276
lclavicle -2.34566e-014 -3.37934e-014
lhumerus -26.0331 -0.572168 81.4526
lradius 43.5844
lwrist 26.9017
lhand -18.833 13.8703
lfingers 7.12502
lthumb 7.46633 43.7185
rfemur -66.7472 -4.61067 16.9986
rtibia 77.8888
rfoot 9.91223 -2.98651
rtoes -6.75053
lfemur -65.5328 10.2793 -20.3459
ltibia 73.4609
lfoot 10.2103 -10.6413
ltoes -32.8558
237
root -40.1126 16.0141 -5.1697 -144.409 87.7234 -164.371
lowerback 34.5199 -2.36216 2.14141
upperback 8.97975 -1.33317 -1.31103
thorax -7.67207 -0.197804 -2.08533
lowerneck 2.47593 -0.889519 1.57184
upperneck -26.8676 0.66056 3.52295
head -8.78492 0.234711 0.810393
rclavicle -6.36111e-015 9.93923e-016
rhumerus -28.4068 6.6783 -89.6369
rradius 50.1844
rwrist -7.85487
rhand -20.7678 -10.4608
rfingers 7.12502
rthumb 5.5985 -40.3668
lclavicle -6.36111e-015 9.93923e-016
lhumerus -26.0348 -0.55573 81.3965
lradius 43.5006
lwrist 26.8727
lhand -18.8383 13.8854
lfingers 7.12502
lthumb 7.46124 43.7338
rfemur -66.6534 -4.62791 16.8865
rtibia 77.8236
rfoot 10.1112 -3.09511
rtoes -6.21897
lfemur -65.4739 10.3109 -20.3634
ltibia 73.4311
lfoot 10.5617 -10.7143
ltoes -32.7607
238
root -40.1027 16.0191 -5.182 -144.545 87.778 -164.471
lowerback 34.5295 -2.34971 2.14559
upperback 8.95622 -1.32157 -1.33556
thorax -7.70175 -0.193572 -2.1175
lowerneck 2.47702 -0.894334 1.59762
upperneck -26.8614 0.657782 3.52756
head -8.78308 0.230289 0.80774
rclavicle -2.78299e-015 -4.77083e-015
rhumerus -28.438 6.56662 -89.6246
rradius 50.0969
rwrist -7.76388
rhand -20.7168 -10.497
rfingers 7.12502
rthumb 5.64779 -40.4018
lclavicle -2.78299e-015 -4.77083e-015
lhumerus -26.0297 -0.533862 81.338
lradius 43.4215
lwrist 26.8541
lhand -18.8532 13.9131
lfingers 7.12502
lthumb 7.44682 43.7621
rfemur -66.5662 -4.64854 16.7771
rtibia 77.7673
rfoot 10.2945 -3.2222
rtoes -5.6676
lfemur -65.418 10.3501 -20.4004
ltibia 73.4116
lfoot 10.9021 -10.774
ltoes -32.6832
239
root -40.0923 16.0239 -5.19464 -144.669 87.8417 -164.56
lowerback 34.5335 -2.33346 2.14082
upperback 8.93496 -1.30828 -1.35907
thorax -7.7266 -0.188506 -2.14453
lowerneck 2.48553 -0.89717 1.62147
upperneck -26.8646 0.656341 3.52385
head -8.78591 0.227421 0.802529
rclavicle 2.14687e-014 2.16675e-014
rhumerus -28.4577 6.4621 -89.6092
rradius 49.9987
rwrist -7.66849
rhand -20.6642 -10.5261
rfingers 7.12502
rthumb 5.6986 -40.4295
lclavicle 2.14687e-014 2.16675e-014
lhumerus -26.022 -0.504875 81.2814
lradius 43.3517
lwrist 26.8456
lhand -18.8734 13.9215
lfingers 7.12502
lthumb 7.42734 43.7711
rfemur -66.4873 -4.66989 16.6732
rtibia 77.722
rfoot 10.4627 -3.35812
rtoes -5.12423
lfemur -65.3697 10.3969 -20.4509
ltibia 73.4074
lfoot 11.2336 -10.8158
ltoes -32.6081
240
root -40.0816 16.0287 -5.20763 -144.97 87.9069 -164.824
lowerback 34.5374 -2.31888 2.12836
upperback 8.91691 -1.29901 -1.38047
thorax -7.74787 -0.185099 -2.1638
lowerneck 2.49448 -0.896691 1.63739
upperneck -26.8706 0.657574 3.51477
head -8.78976 0.227157 0.79664
rclavicle -1.98785e-014 -2.44505e-014
rhumerus -28.4645 6.3699 -89.5911
rradius 49.8919
rwrist -7.58044
rhand -20.6183 -10.5458
rfingers 7.12502
rthumb 5.74287 -40.448
lclavicle -1.98785e-014 -2.44505e-014
lhumerus -26.0129 -0.467903 81.2285
lradius 43.2939
lwrist 26.8492
lhand -18.8903 13.933
lfingers 7.12502
lthumb 7.41101 43.7832
rfemur -66.4055 -4.69872 16.5686
rtibia 77.6839
rfoot 10.6152 -3.50074
rtoes -4.56275
lfemur -65.3228 10.4383 -20.5143
ltibia 73.4119
lfoot 11.5583 -10.8377
ltoes -32.5318
241
root -40.0706 16.0322 -5.22027 -144.895 87.9733 -164.715
lowerback 34.5356 -2.2998 2.10993
upperback 8.90189 -1.28544 -1.39406
thorax -7.76312 -0.179713 -2.1733
lowerneck 2.49714 -0.892044 1.64853
upperneck -26.8731 0.6624 3.49981
head -8.79117 0.229778 0.789239
rclavicle 1.39149e-014 2.60408e-014
rhumerus -28.4574 6.28954 -89.5715
rradius 49.7773
rwrist -7.49951
rhand -20.5985 -10.5789
rfingers 7.12502
rthumb 5.76199 -40.4806
lclavicle 1.39149e-014 2.60408e-014
lhumerus -26.0022 -0.420134 81.1794
lradius 43.2492
lwrist 26.8557
lhand -18.904 13.9222
lfingers 7.12502
lthumb 7.39785 43.7729
rfemur -66.3361 -4.7101 16.4826
rtibia 77.6543
rfoot 10.7451 -3.65084
rtoes -4.02621
lfemur -65.2939 10.4884 -20.5653
ltibia 73.4306
lfoot 11.8879 -10.8418
ltoes -32.4393
242
root -40.0596 16.0359 -5.23304 -144.924 88.0359 -164.71
lowerback 34.5321 -2.28296 2.08171
upperback 8.89308 -1.27644 -1.40011
thorax -7.7707 -0.17613 -2.168
lowerneck 2.47847 -0.88312 1.65038
upperneck -26.8626 0.669082 3.47727
head -8.78402 0.235332 0.780592
rclavicle -9.14409e-015 2.18663e-015
rhumerus -28.4312 6.22819 -89.5457
rradius 49.6576
rwrist -7.43487
rhand -20.5814 -10.6287
rfingers 7.12502
rthumb 5.77849 -40.5299
lclavicle -9.14409e-015 2.18663e-015
lhumerus -25.9849 -0.359388 81.1393
lradius 43.2187
lwrist 26.8629
lhand -18.9196 13.9192
lfingers 7.12502
lthumb 7.38278 43.7704
rfemur -66.2616 -4.71902 16.3946
rtibia 77.6229
rfoot 10.8596 -3.80697
rtoes -3.48684
lfemur -65.2659 10.5288 -20.6186
ltibia 73.4495
lfoot 12.2149 -10.8346
ltoes -32.3586
243
root -40.0486 16.0401 -5.24576 -144.985 88.0887 -164.738
lowerback 34.5338 -2.27155 2.05474
upperback 8.88508 -1.27291 -1.40267
thorax -7.77949 -0.175009 -2.15763
lowerneck 2.44703 -0.87096 1.64628
upperneck -26.8394 0.678821 3.45585
head -8.77007 0.243004 0.773032
rclavicle 1.51076e-014 1.21259e-014
rhumerus -28.3985 6.17929 -89.5213
rradius 49.5384
rwrist -7.38008
rhand -20.5729 -10.6978
rfingers 7.12502
rthumb 5.78669 -40.5988
lclavicle 1.51076e-014 1.21259e-014
lhumerus -25.9685 -0.296763 81.1012
lradius 43.2024
lwrist 26.8751
lhand -18.9014 14.0054
lfingers 7.12502
lthumb 7.40031 43.856
rfemur -66.1791 -4.72079 16.3074
rtibia 77.5852
rfoot 10.9546 -3.96242
rtoes -2.97688
lfemur -65.2365 10.556 -20.6646
ltibia 73.464
lfoot 12.547 -10.8139
ltoes -32.2634
244
root -40.0376 16.045 -5.25861 -145.001 88.136 -164.725
lowerback 34.5246 -2.26069 2.02264
upperback 8.88408 -1.2707 -1.39722
thorax -7.7763 -0.174264 -2.13571
lowerneck 2.40286 -0.855596 1.63324
upperneck -26.8083 0.69126 3.43401
head -8.75099 0.253119 0.766595
rclavicle -5.1684e-015 -1.19271e-014
rhumerus -28.3514 6.14607 -89.4905
rradius 49.4187
rwrist -7.33428
rhand -20.5589 -10.7469
rfingers 7.12502
rthumb 5.80023 -40.6475
lclavicle -5.1684e-015 -1.19271e-014
lhumerus -25.946 -0.227364 81.0722
lradius 43.2002
lwrist 26.8914
lhand -18.8722 14.1252
lfingers 7.12502
lthumb 7.42855 43.9748
rfemur -66.0923 -4.70892 16.2164
rtibia 77.5374
rfoot 11.0379 -4.12083
rtoes -2.4761
lfemur -65.2077 10.5729 -20.7046
ltibia 73.4718
lfoot 12.878 -10.7915
ltoes -32.1834
